PathFileType	4	(X/Y/Z)	..\data\2014053\dynamic\2014053_C4_04.trc
DataRate	CameraRate	NumFrames	NumMarkers	Units	OrigDataRate	OrigDataStartFrame	OrigNumFrames
100.000000	100.000000	4	52	mm	100.000000	22	181
Frame#	Time	L_IAS			L_IPS			R_IPS			R_IAS			L_FTC			L_FLE			L_FME			L_FAX			L_TTC			L_FAL			L_TAM			L_FCC			L_FM1			L_FM2			L_FM5			R_FTC			R_FLE			R_FME			R_FAX			R_TTC			R_FAL			R_TAM			R_FCC			R_FM1			R_FM2			R_FM5			CV7			TV10			SXS			SJN			L_SIA			L_SRS			L_SAA			L_SAE			L_HLE			L_HME			L_UOA			L_RSP			L_UHE			L_HM2			L_HM5			R_SIA			R_SRS			R_SAA			R_SAE			R_HLE			R_HME			R_UOA			R_RSP			R_UHE			R_HM2			R_HM5			
		X1	Y1	Z1	X2	Y2	Z2	X3	Y3	Z3	X4	Y4	Z4	X5	Y5	Z5	X6	Y6	Z6	X7	Y7	Z7	X8	Y8	Z8	X9	Y9	Z9	X10	Y10	Z10	X11	Y11	Z11	X12	Y12	Z12	X13	Y13	Z13	X14	Y14	Z14	X15	Y15	Z15	X16	Y16	Z16	X17	Y17	Z17	X18	Y18	Z18	X19	Y19	Z19	X20	Y20	Z20	X21	Y21	Z21	X22	Y22	Z22	X23	Y23	Z23	X24	Y24	Z24	X25	Y25	Z25	X26	Y26	Z26	X27	Y27	Z27	X28	Y28	Z28	X29	Y29	Z29	X30	Y30	Z30	X31	Y31	Z31	X32	Y32	Z32	X33	Y33	Z33	X34	Y34	Z34	X35	Y35	Z35	X36	Y36	Z36	X37	Y37	Z37	X38	Y38	Z38	X39	Y39	Z39	X40	Y40	Z40	X41	Y41	Z41	X42	Y42	Z42	X43	Y43	Z43	X44	Y44	Z44	X45	Y45	Z45	X46	Y46	Z46	X47	Y47	Z47	X48	Y48	Z48	X49	Y49	Z49	X50	Y50	Z50	X51	Y51	Z51	X52	Y52	Z52	

23	0.22	145.2777709960938	943.4208984375002	-278.4011230468751	-67.01397705078126	964.861999511719	-240.320297241211	-78.29736328125001	957.8369140625002	-134.1488342285157	119.6218719482422	930.4680786132815	-56.44305801391603	96.05994415283206	879.7561035156252	-370.8956604003907	187.9997100830078	484.6596679687501	-298.9783020019532	156.8981323242188	481.7894592285157	-167.0648193359375	170.4228973388672	418.7146606445314	-304.4667053222657	224.1484375000001	416.7743225097657	-232.7332000732422	154.8844299316407	64.02932739257814	-263.2991638183594	170.2182312011719	78.43191528320314	-175.6157379150391	105.5196151733399	15.91109561920166	-209.9376678466797	292.0140991210938	20.88606262207032	-150.2003326416016	306.0214233398438	39.84182357788087	-204.8457336425782	272.8733825683594	18.78578567504883	-266.2412109375001	46.14648056030274	846.5921020507815	11.83505821228028	53.9528274536133	455.3128356933595	-31.10380744934083	63.52994537353517	439.9022521972657	-170.4763641357422	7.552958488464357	418.5463867187501	-31.90258216857911	47.38512420654298	356.0148620605469	-82.3875198364258	-276.3882751464844	189.8159942626953	-63.90433883666994	-250.2151489257813	180.6206207275391	-148.183334350586	-331.9514770507813	202.9299926757813	-127.7975997924805	-235.7610778808594	54.9553680419922	-172.4061737060547	-220.0971374511719	49.81659317016603	-120.378288269043	-254.4578552246094	56.00402832031251	-66.07833862304689	-36.5593376159668	1438.52001953125	-189.450927734375	-76.57704162597658	1207.446533203125	-189.671875	135.2952270507813	1160.399658203125	-187.4649353027344	76.6025848388672	1368.1015625	-190.1408081054688	-92.85702514648439	1253.383056640625	-275.2687683105469	-73.9535369873047	1376.978271484375	-278.6651611328126	-12.71027946472168	1376.418579101563	-374.6946105957032	32.24640274047852	1381.305786132813	-377.3694763183594	-19.12516784667969	1064.6689453125	-414.9919738769532	-28.27973175048829	1055.156860351563	-333.6200561523438	-46.77337646484376	1033.54833984375	-374.4328002929688	70.68668365478517	825.3056640625002	-388.7579956054689	20.55934715270996	835.5662841796877	-440.8758850097657	91.09474945068361	741.1166992187501	-397.2886962890626	10.18918418884278	756.4817504882814	-442.548065185547	-101.2855529785157	1252.598022460938	-91.10046386718751	-76.1709442138672	1375.962280273438	-97.45288085937503	-14.63769817352295	1378.059814453125	-10.34243965148926	36.01881790161134	1374.738891601563	2.014519929885865	3.749911069869996	1060.787353515625	42.94022750854493	-4.83132028579712	1051.561889648438	-39.11525344848634	-20.39902687072754	1026.467651367188	2.888373136520386	137.785888671875	840.430847167969	34.98026275634766	75.07025146484376	835.402038574219	66.87886047363283	170.2250518798828	753.8491210937501	35.10140991210938	76.02355194091798	754.9592285156251	60.9872283935547	
24	0.23	155.4519805908203	944.667419433594	-278.7212829589844	-56.7261428833008	965.868591308594	-241.2135620117188	-68.19587707519533	958.092956542969	-135.3575286865235	129.6968994140625	932.4959106445315	-56.4117889404297	106.2768478393555	880.7954711914065	-371.1978149414063	192.0725250244141	484.0663146972657	-299.3147888183594	161.179428100586	481.757049560547	-167.5925445556641	173.7552642822266	418.3205871582032	-304.6709289550782	228.008285522461	415.8989257812501	-233.2291259765626	155.0699462890625	63.94657516479494	-262.9597473144532	170.2848663330078	78.22451019287111	-175.3203735351563	105.4504547119141	15.79787254333496	-209.8353271484376	292.1649780273438	20.92137527465821	-150.2406463623047	306.3320922851563	39.69152832031251	-204.8374328613282	272.8645629882813	18.79400253295899	-266.5038452148438	56.66909408569337	848.2437744140627	11.33281326293945	74.31124877929689	457.2458496093751	-29.19080162048341	85.42137145996095	441.696502685547	-168.69677734375	29.36167526245118	420.3195190429689	-29.87886238098145	69.18817138671876	358.0960998535157	-80.56260681152345	-255.1048583984376	192.6221771240235	-62.63536834716798	-228.790023803711	183.5518646240235	-146.8667144775391	-310.7861938476563	205.3382873535157	-126.6827697753907	-212.4370880126954	58.474666595459	-170.2728729248047	-197.4054107666016	53.26499938964845	-118.2326965332032	-232.1432037353516	59.5995559692383	-64.46937561035158	-25.37910842895509	1440.132934570313	-190.3133087158203	-65.88630676269533	1209.082397460938	-190.9006500244141	145.9815521240235	1161.512329101563	-187.3813781738282	87.62536621093751	1369.535034179688	-190.4239807128907	-81.43801879882814	1255.084838867188	-276.9370727539063	-62.33286666870119	1378.685424804688	-279.9799804687501	-0.1876170039176941	1378.006103515625	-375.5780029296876	44.83070373535157	1382.779663085938	-377.7734680175782	-5.855474948883058	1066.174560546875	-416.6488037109376	-15.99083137512207	1056.400390625	-335.4446411132813	-33.95705032348634	1034.88720703125	-376.5045776367188	84.34143066406251	827.0371093750002	-389.7759399414064	34.85983657836915	837.2916259765627	-442.5669860839845	105.5352096557617	743.1657104492189	-398.6878051757814	25.07314491271973	758.1030273437501	-444.7300720214845	-91.02456665039064	1254.165283203125	-92.71264648437501	-65.60998535156251	1377.457885742188	-98.598258972168	-4.614862918853761	1379.326171875	-11.21334075927735	45.86302947998048	1375.950561523438	1.606708288192749	12.62357616424561	1062.076782226563	42.21139526367188	4.399128437042237	1052.85986328125	-39.80914688110352	-11.49931335449219	1028.03955078125	2.037328958511353	144.4857330322266	840.4892578125002	35.37997436523438	81.48293304443361	836.1953735351565	66.93875122070314	175.867416381836	753.4971313476564	35.59296798706055	81.75891113281251	755.7495727539064	61.14652633666994	
25	0.24	165.3969268798828	945.856140136719	-279.1195373535157	-46.62167739868165	966.9647216796877	-242.0310974121094	-58.19842910766603	958.734802246094	-136.5349884033203	139.706771850586	934.599060058594	-56.36483001708986	116.0662231445313	881.6506347656252	-371.4599304199219	195.7729644775391	483.4783020019532	-299.6684265136719	165.3193969726563	481.7450256347657	-168.1085815429688	176.727294921875	417.9368286132814	-304.8891296386719	231.5428009033204	415.0513305664064	-233.8004302978516	155.2148742675782	63.87199783325197	-262.6652526855469	170.3248596191407	77.95519256591798	-175.0779418945313	105.3505783081055	15.70234680175782	-209.7417449951172	292.3088989257813	20.93992996215821	-150.3206024169922	306.6007080078126	39.46342849731446	-204.8889617919922	272.8306579589844	18.69152450561524	-266.7531433105469	66.69171142578126	850.1905517578127	10.94006252288819	94.54862213134767	459.5922241210939	-27.40563011169434	106.9776840209961	444.0736694335939	-166.9931640625	51.00141906738283	422.4210205078126	-28.05179595947266	91.09669494628908	360.5986938476563	-78.9004364013672	-233.0727233886719	194.5312042236329	-61.53610229492189	-206.5508728027344	185.6368408203125	-145.6923828125	-288.9605712890626	206.3523254394532	-125.7559280395508	-187.3088836669922	61.28241348266603	-168.0018615722657	-172.7923431396485	56.39486312866212	-115.9032821655274	-208.1111297607422	62.58753585815431	-62.6499366760254	-14.35458755493164	1441.724365234375	-191.0765075683594	-55.33084106445314	1210.694946289063	-192.0373840332032	156.5076141357422	1162.642822265625	-187.3072662353516	98.47492980957034	1370.953125	-190.6574401855469	-70.18170166015626	1256.750244140625	-278.4910583496094	-50.93787765502931	1380.364990234375	-281.1867370605469	12.06730270385743	1379.577026367188	-376.3786010742188	57.1551971435547	1384.252197265625	-378.1120605468751	7.470575809478762	1067.659545898438	-418.305389404297	-3.708297967910767	1057.594848632813	-337.2671813964844	-21.08437156677246	1036.188720703125	-378.6003723144532	98.10562133789065	828.769714355469	-390.829803466797	49.27703857421876	839.019714355469	-444.2855224609376	120.1398620605469	745.2345581054689	-400.2159118652345	40.10121536254884	759.7518920898439	-446.997283935547	-80.88929748535158	1255.679077148438	-94.26938629150392	-55.20069122314455	1378.905395507813	-99.67208099365237	5.241232872009278	1380.5146484375	-12.05373096466065	55.49570846557619	1377.130859375	1.312841653823853	21.35934829711914	1063.337890625	41.60139465332032	13.50737476348877	1054.095825195313	-40.37823486328126	-2.710813045501709	1029.559692382813	1.32642149925232	151.1603088378907	840.624694824219	35.88051986694337	87.9159393310547	837.0401611328127	67.12084960937501	181.5937957763672	753.2976684570314	36.27702331542969	87.57263183593751	756.5958862304689	61.47448730468751	
26	0.25	175.1355438232422	947.0098876953127	-279.6193847656251	-36.68781661987305	968.164978027344	-242.7589111328126	-48.27257537841798	959.7915649414065	-137.6425933837891	149.6894226074219	936.770935058594	-56.37886810302736	125.4454574584961	882.3419189453127	-371.7167358398438	199.2255859375001	482.9227600097657	-300.0169067382813	169.331787109375	481.7575073242189	-168.5923309326172	179.4517974853516	417.5852355957032	-305.1066284179688	234.7928924560547	414.2468566894532	-234.3731689453126	155.3493957519532	63.8204917907715	-262.4044494628907	170.3453674316407	77.64077758789064	-174.8689270019532	105.2378082275391	15.638334274292	-209.6583404541016	292.4457397460938	20.9199447631836	-150.4189147949219	306.8513183593751	39.15824508666993	-204.9710998535157	272.7847900390626	18.50468063354493	-266.9850769042969	76.30946350097658	852.4031372070315	10.63105297088623	114.634506225586	462.3230590820314	-25.75136756896973	128.2228546142578	446.964324951172	-165.3631591796875	72.40160369873048	424.8391113281251	-26.42741584777833	113.0624008178711	363.4898376464844	-77.36510467529298	-210.3345642089844	195.5161590576172	-60.59458541870119	-183.5314636230469	186.818115234375	-144.6364135742188	-266.4866333007813	205.9861907958985	-125.0049285888672	-160.612533569336	63.2921829223633	-165.6183471679688	-146.4978790283203	59.07753372192384	-113.4283828735352	-182.5535125732422	64.87819671630861	-60.65695190429689	-3.480140686035157	1443.280883789063	-191.738021850586	-44.89342880249024	1212.281372070313	-193.0748291015626	166.8900604248047	1163.81884765625	-187.2682495117188	109.1615295410157	1372.361328125	-190.8513946533203	-59.08630371093751	1258.377685546875	-279.9087829589844	-39.77183914184571	1382.004638671875	-282.2670593261719	24.02571868896485	1381.140014648438	-377.0885314941407	69.1868133544922	1385.743530273438	-378.3935852050782	20.83255577087403	1069.145629882813	-419.9435119628907	8.57805919647217	1058.767822265625	-339.0634155273438	-8.161932945251467	1037.470825195313	-380.6903076171876	111.9936294555664	830.5327148437502	-391.9213256835939	63.80376052856447	840.7717895507815	-446.0135803222657	134.8928833007813	747.3371582031251	-401.8424377441407	55.25120925903322	761.4545288085939	-449.3114318847657	-70.85034179687501	1257.1435546875	-95.74217987060548	-44.92390060424805	1380.302001953125	-100.6686630249024	14.96158123016358	1381.64794921875	-12.86262130737305	64.96176147460939	1378.304321289063	1.110073328018189	29.94725227355958	1064.59765625	41.0760612487793	22.52021789550782	1055.31103515625	-40.8672103881836	5.962273597717286	1031.055419921875	0.7050126791000367	157.817626953125	840.8627929687502	36.49038314819337	94.36463928222658	837.9537353515627	67.40184783935548	187.4215698242188	753.2713623046876	37.18524551391602	93.45780181884767	757.5034179687501	61.94042968750001	
